<svg width="56" height="56" viewBox="0 0 56 56" fill="none" xmlns="http://www.w3.org/2000/svg">
<g filter="url(#filter0_d_4_56)">
<rect x="5.5" y="2" width="45" height="45" rx="12" fill="#4FD1C5"/>
</g>
<path d="M29.4062 23.1057H35.5586C35.6021 23.1057 35.6438 23.123 35.6746 23.1538C35.7053 23.1845 35.7226 23.2263 35.7226 23.2698V31.5315C35.7226 32.2743 35.4275 32.9867 34.9023 33.5119C34.377 34.0372 33.6647 34.3323 32.9218 34.3323H23.0781C22.3353 34.3323 21.6229 34.0372 21.0976 33.5119C20.5724 32.9867 20.2773 32.2743 20.2773 31.5315V17.469C20.2773 16.7262 20.5724 16.0138 21.0976 15.4885C21.6229 14.9633 22.3353 14.6682 23.0781 14.6682H27.1211C27.1646 14.6682 27.2063 14.6855 27.2371 14.7163C27.2678 14.747 27.2851 14.7888 27.2851 14.8323V20.9846C27.2851 21.5472 27.5086 22.0867 27.9064 22.4845C28.3042 22.8822 28.8437 23.1057 29.4062 23.1057ZM24.4843 30.137H31.5156C31.7052 30.137 31.887 30.0616 32.0211 29.9276C32.1551 29.7935 32.2304 29.6117 32.2304 29.4221C32.2304 29.2325 32.1551 29.0507 32.0211 28.9166C31.887 28.7826 31.7052 28.7073 31.5156 28.7073H24.4843C24.2948 28.7073 24.1129 28.7826 23.9789 28.9166C23.8448 29.0507 23.7695 29.2325 23.7695 29.4221C23.7695 29.6117 23.8448 29.7935 23.9789 29.9276C24.1129 30.0616 24.2948 30.137 24.4843 30.137ZM24.4843 26.6213H31.5156C31.7052 26.6213 31.887 26.546 32.0211 26.412C32.1551 26.2779 32.2304 26.0961 32.2304 25.9065C32.2304 25.7169 32.1551 25.5351 32.0211 25.401C31.887 25.267 31.7052 25.1916 31.5156 25.1916H24.4843C24.2948 25.1916 24.1129 25.267 23.9789 25.401C23.8448 25.5351 23.7695 25.7169 23.7695 25.9065C23.7695 26.0961 23.8448 26.2779 23.9789 26.412C24.1129 26.546 24.2948 26.6213 24.4843 26.6213Z" fill="white" stroke="#4FD1C5" stroke-width="0.0234375"/>
<path d="M28.8446 15.2275L35.1644 21.5473L28.8446 15.2275ZM28.8446 15.2275C28.8446 15.2275 28.8446 15.2275 28.8446 15.2275M28.8446 15.2275L28.8446 15.2275M28.8446 15.2275C28.834 15.2169 28.8204 15.2097 28.8057 15.2068C28.791 15.2039 28.7757 15.2054 28.7618 15.2112C28.7479 15.2169 28.7361 15.2266 28.7277 15.2391C28.7193 15.2515 28.7148 15.2662 28.7148 15.2812V20.9857C28.7148 21.1691 28.7876 21.345 28.9173 21.4746C29.0469 21.6043 29.2228 21.6771 29.4062 21.6771H35.1107C35.1257 21.6771 35.1403 21.6726 35.1528 21.6642C35.1653 21.6558 35.175 21.6439 35.1807 21.6301C35.1865 21.6162 35.188 21.6009 35.1851 21.5862C35.1821 21.5715 35.175 21.5579 35.1644 21.5473L28.8446 15.2275Z" fill="white" stroke="#4FD1C5" stroke-width="0.0234375"/>
<defs>
<filter id="filter0_d_4_56" x="-4.76837e-07" y="-2.38419e-07" width="56" height="56" filterUnits="userSpaceOnUse" color-interpolation-filters="sRGB">
<feFlood flood-opacity="0" result="BackgroundImageFix"/>
<feColorMatrix in="SourceAlpha" type="matrix" values="0 0 0 0 0 0 0 0 0 0 0 0 0 0 0 0 0 0 127 0" result="hardAlpha"/>
<feOffset dy="3.5"/>
<feGaussianBlur stdDeviation="2.75"/>
<feColorMatrix type="matrix" values="0 0 0 0 0 0 0 0 0 0 0 0 0 0 0 0 0 0 0.02 0"/>
<feBlend mode="normal" in2="BackgroundImageFix" result="effect1_dropShadow_4_56"/>
<feBlend mode="normal" in="SourceGraphic" in2="effect1_dropShadow_4_56" result="shape"/>
</filter>
</defs>
</svg>
