<svg width="56" height="56" viewBox="0 0 56 56" fill="none" xmlns="http://www.w3.org/2000/svg">
<g filter="url(#filter0_d_4_31)">
<rect x="5.49988" y="2" width="45" height="45" rx="12" fill="#4FD1C5"/>
</g>
<path d="M28.0001 15.3586C22.9521 15.3586 18.8594 19.4512 18.8594 24.4992C18.8594 29.5472 22.9521 33.6398 28.0001 33.6398C33.0481 33.6398 37.1407 29.5472 37.1407 24.4992C37.1407 19.4512 33.0481 15.3586 28.0001 15.3586Z" fill="white" stroke="#4FD1C5" stroke-width="0.75" stroke-miterlimit="10"/>
<path d="M28 15.3586C25.4481 15.3586 23.0486 19.4512 23.0486 24.4992C23.0486 29.5472 25.4481 33.6398 28 33.6398C30.5519 33.6398 32.9513 29.5472 32.9513 24.4992C32.9513 19.4512 30.5519 15.3586 28 15.3586Z" fill="white" stroke="#4FD1C5" stroke-width="0.75" stroke-miterlimit="10"/>
<path d="M21.9061 18.4055C23.5865 19.5986 25.7021 20.3101 28 20.3101C30.2979 20.3101 32.4134 19.5986 34.0939 18.4055" fill="white"/>
<path d="M21.9061 18.4055C23.5865 19.5986 25.7021 20.3101 28 20.3101C30.2979 20.3101 32.4134 19.5986 34.0939 18.4055" stroke="#4FD1C5" stroke-width="0.75" stroke-linecap="round" stroke-linejoin="round"/>
<path d="M34.0939 30.5944C32.4134 29.4013 30.2979 28.6898 28 28.6898C25.7021 28.6898 23.5865 29.4013 21.9061 30.5944" stroke="#4FD1C5" stroke-width="0.75" stroke-linecap="round" stroke-linejoin="round"/>
<path d="M27.9999 15.3586V33.6398" stroke="#4FD1C5" stroke-width="0.75" stroke-miterlimit="10"/>
<path d="M37.1407 24.499H18.8594" stroke="#4FD1C5" stroke-width="0.75" stroke-miterlimit="10"/>
<defs>
<filter id="filter0_d_4_31" x="-0.000122547" y="-2.38419e-07" width="56" height="56" filterUnits="userSpaceOnUse" color-interpolation-filters="sRGB">
<feFlood flood-opacity="0" result="BackgroundImageFix"/>
<feColorMatrix in="SourceAlpha" type="matrix" values="0 0 0 0 0 0 0 0 0 0 0 0 0 0 0 0 0 0 127 0" result="hardAlpha"/>
<feOffset dy="3.5"/>
<feGaussianBlur stdDeviation="2.75"/>
<feColorMatrix type="matrix" values="0 0 0 0 0 0 0 0 0 0 0 0 0 0 0 0 0 0 0.02 0"/>
<feBlend mode="normal" in2="BackgroundImageFix" result="effect1_dropShadow_4_31"/>
<feBlend mode="normal" in="SourceGraphic" in2="effect1_dropShadow_4_31" result="shape"/>
</filter>
</defs>
</svg>
